<?xml version="1.0" encoding="UTF-8"?><svg id="Layer_2" xmlns="http://www.w3.org/2000/svg" viewBox="0 0 181.94 98.83"><defs><style>.cls-1{fill:#fff;}</style></defs><path class="cls-1" d="m70.1,98.83h29.17c6.79,0,10.66-7.75,6.59-13.18L44.08,3.29c-1.56-2.07-4-3.29-6.59-3.29H8.25C1.46,0-2.41,7.75,1.67,13.18l61.84,82.35c1.56,2.07,3.99,3.29,6.59,3.29Z"/><path class="cls-1" d="m161.34,65.88h-54.18c-6.79,0-10.66-7.75-6.59-13.18l12.35-16.47c1.56-2.07,4-3.29,6.59-3.29h54.18c6.79,0,10.66,7.75,6.59,13.18l-12.35,16.47c-1.56,2.07-4,3.29-6.59,3.29Z"/></svg>